<?xml version="1.0" encoding="UTF-8"?>
<svg version="1.1" xmlns="http://www.w3.org/2000/svg" width="264" height="216">
<path d="M0 0 C87.12 0 174.24 0 264 0 C264 71.28 264 142.56 264 216 C176.88 216 89.76 216 0 216 C0 144.72 0 73.44 0 0 Z " fill="#010204" transform="translate(0,0)"/>
<path d="M0 0 C87.12 0 174.24 0 264 0 C264 71.28 264 142.56 264 216 C176.88 216 89.76 216 0 216 C0 144.72 0 73.44 0 0 Z M96 13 C93.34158863 13.70598837 90.67407981 14.35453246 88 15 C88 15.66 88 16.32 88 17 C86.6078125 17.185625 86.6078125 17.185625 85.1875 17.375 C81.86074765 17.81533082 81.86074765 17.81533082 79 20 C79 20.66 79 21.32 79 22 C77.35 22.33 75.7 22.66 74 23 C74 23.66 74 24.32 74 25 C72.35 25.33 70.7 25.66 69 26 C69 26.66 69 27.32 69 28 C67 29 65 30 63 31 C63 31.66 63 32.32 63 33 C62.01 33.33 61.02 33.66 60 34 C60 34.66 60 35.32 60 36 C59.01 36.33 58.02 36.66 57 37 C57 37.66 57 38.32 57 39 C56.01 39.33 55.02 39.66 54 40 C54 40.66 54 41.32 54 42 C53.34 42 52.68 42 52 42 C52 42.99 52 43.98 52 45 C50.515 45.495 50.515 45.495 49 46 C49 46.66 49 47.32 49 48 C48.34 48 47.68 48 47 48 C46.67 49.65 46.34 51.3 46 53 C45.34 53 44.68 53 44 53 C43.505 55.475 43.505 55.475 43 58 C42.34 58 41.68 58 41 58 C41 58.99 41 59.98 41 61 C40.34 61 39.68 61 39 61 C37.80712589 64.87684087 37 67.91621923 37 72 C36.34 72 35.68 72 35 72 C35 73.32 35 74.64 35 76 C34.34 76 33.68 76 33 76 C28.91220074 92.63400077 28.15374961 108.22856308 29.875 125.25 C29.95339111 126.04776855 30.03178223 126.84553711 30.11254883 127.66748047 C30.56808863 131.75641967 31.21007078 135.23964449 33 139 C33.66 139 34.32 139 35 139 C35.33 141.97 35.66 144.94 36 148 C36.66 148 37.32 148 38 148 C38.11472656 148.72316406 38.22945312 149.44632813 38.34765625 150.19140625 C40.16735871 158.02593362 45.4695134 164.89244486 50.0625 171.375 C50.47363037 171.95757568 50.88476074 172.54015137 51.30834961 173.14038086 C55.13905588 178.43475998 59.5271313 182.79109213 64.6875 186.8125 C65.45449219 187.41707031 66.22148438 188.02164063 67.01171875 188.64453125 C68.87436093 190.18776215 68.87436093 190.18776215 71 190 C71 190.66 71 191.32 71 192 C75.06573561 195.19560041 75.06573561 195.19560041 80 196 C80 196.66 80 197.32 80 198 C80.99 198 81.98 198 83 198 C83 198.66 83 199.32 83 200 C84.98 200.33 86.96 200.66 89 201 C89 201.66 89 202.32 89 203 C91.64 203.33 94.28 203.66 97 204 C97 204.66 97 205.32 97 206 C100.63 206.33 104.26 206.66 108 207 C108 207.66 108 208.32 108 209 C116.38594007 211.19355023 124.4987782 211.23625088 133.125 211.125 C134.47655581 211.11494282 135.82811893 211.10582184 137.1796875 211.09765625 C140.45331558 211.07427319 143.72655994 211.04150061 147 211 C147 210.34 147 209.68 147 209 C148.423125 208.814375 148.423125 208.814375 149.875 208.625 C154.62254802 207.95234946 159.30640153 206.97271759 164 206 C164 205.34 164 204.68 164 204 C166.64 203.67 169.28 203.34 172 203 C172 202.34 172 201.68 172 201 C172.55816406 200.88398438 173.11632812 200.76796875 173.69140625 200.6484375 C179.65169448 198.97431255 185.94392205 195.53925457 191 192 C191 191.34 191 190.68 191 190 C191.75925781 189.90589844 192.51851562 189.81179687 193.30078125 189.71484375 C196.44302658 188.88267169 197.21582506 188.08158084 199.1875 185.5625 C202.75118766 181.19991972 206.67850573 177.36352718 210.765625 173.4921875 C213.16293519 170.81826459 214.50238651 168.24778309 216 165 C216.928125 163.6696875 216.928125 163.6696875 217.875 162.3125 C221.13259175 157.23448933 225 151.1502791 225 145 C225.66 145 226.32 145 227 145 C227 143.68 227 142.36 227 141 C227.66 141 228.32 141 229 141 C229.33 137.37 229.66 133.74 230 130 C230.66 130 231.32 130 232 130 C232.04964329 124.57398799 232.08583447 119.14810985 232.10986328 113.72192383 C232.11988642 111.87815038 232.13350852 110.03439269 232.15087891 108.19067383 C232.17528995 105.5320241 232.18652017 102.87358557 232.1953125 100.21484375 C232.20563507 99.39789536 232.21595764 98.58094696 232.22659302 97.73924255 C232.22755694 92.76028416 231.58808839 88.7232361 230 84 C229.77699219 83.26394531 229.55398437 82.52789062 229.32421875 81.76953125 C226.22744622 72.2512304 222.11900788 63.11244201 218 54 C217.34 54 216.68 54 216 54 C215 52 214 50 213 48 C212.34 48 211.68 48 211 48 C210.7525 47.443125 210.505 46.88625 210.25 46.3125 C208.77075182 43.57589087 207.06532561 41.32349131 205 39 C204.34 39 203.68 39 203 39 C202.938125 38.4225 202.87625 37.845 202.8125 37.25 C200.82253166 31.73931845 192.92298043 27.90156017 188 25 C187.34 25 186.68 25 186 25 C185.67 24.01 185.34 23.02 185 22 C183.68352881 21.30062468 182.34977849 20.63270867 181 20 C180.67 19.34 180.34 18.68 180 18 C177.67843403 17.59270772 175.3431213 17.25561323 173 17 C173 16.34 173 15.68 173 15 C171.7625 14.67 170.525 14.34 169.25 14 C168.55390625 13.814375 167.8578125 13.62875 167.140625 13.4375 C164.71098139 12.86650651 164.71098139 12.86650651 161 13 C161 12.34 161 11.68 161 11 C159.02 11 157.04 11 155 11 C155 10.34 155 9.68 155 9 C147.44110535 7.95739384 139.92888852 7.78091176 132.30834961 7.75976562 C130.20190826 7.75006634 128.0964479 7.71895436 125.99023438 7.6875 C115.33182886 7.60541114 106.07437884 9.56555267 96 13 Z " fill="#000001" transform="translate(0,0)"/>
<path d="M0 0 C0.68185364 -0.00095673 1.36370728 -0.00191345 2.06622314 -0.00289917 C3.5050872 -0.00357728 4.94395438 -0.00174882 6.3828125 0.00244141 C8.55736377 0.00776171 10.73170537 0.00250107 12.90625 -0.00390625 C19.94326228 -0.00693475 26.8464788 0.14661584 33.828125 1.1328125 C33.828125 1.7928125 33.828125 2.4528125 33.828125 3.1328125 C35.808125 3.1328125 37.788125 3.1328125 39.828125 3.1328125 C39.828125 3.7928125 39.828125 4.4528125 39.828125 5.1328125 C41.065625 5.2771875 42.303125 5.4215625 43.578125 5.5703125 C46.39316999 5.91969752 49.0982747 6.33660616 51.828125 7.1328125 C51.828125 7.7928125 51.828125 8.4528125 51.828125 9.1328125 C52.941875 9.2359375 54.055625 9.3390625 55.203125 9.4453125 C56.399375 9.6721875 57.595625 9.8990625 58.828125 10.1328125 C59.818125 11.6178125 59.818125 11.6178125 60.828125 13.1328125 C62.87816455 14.32513863 62.87816455 14.32513863 64.828125 15.1328125 C64.828125 15.7928125 64.828125 16.4528125 64.828125 17.1328125 C65.818125 17.473125 65.818125 17.473125 66.828125 17.8203125 C72.86705816 20.46234576 78.16799964 23.49011924 81.828125 29.1328125 C81.828125 29.7928125 81.828125 30.4528125 81.828125 31.1328125 C82.405625 31.3596875 82.983125 31.5865625 83.578125 31.8203125 C86.42552309 33.48129472 87.94879693 35.44805811 89.828125 38.1328125 C89.828125 38.7928125 89.828125 39.4528125 89.828125 40.1328125 C90.488125 40.1328125 91.148125 40.1328125 91.828125 40.1328125 C94.828125 43.59435096 94.828125 43.59435096 94.828125 46.1328125 C95.488125 46.1328125 96.148125 46.1328125 96.828125 46.1328125 C97.11945313 46.84824219 97.41078125 47.56367187 97.7109375 48.30078125 C99.99520815 53.85342657 102.38207382 59.2987973 105.015625 64.6953125 C107.41803676 69.8019775 108.75357401 74.50282022 109.50390625 80.0859375 C109.62076587 82.1213785 109.62076587 82.1213785 110.828125 83.1328125 C110.91677708 86.0171507 110.94333796 88.87743408 110.92578125 91.76171875 C110.92365883 93.05806496 110.92365883 93.05806496 110.92149353 94.38059998 C110.91587739 97.15220542 110.90332219 99.9237313 110.890625 102.6953125 C110.88561208 104.5696603 110.88104881 106.44400935 110.87695312 108.31835938 C110.86590272 112.92320794 110.8486273 117.52799671 110.828125 122.1328125 C110.168125 122.1328125 109.508125 122.1328125 108.828125 122.1328125 C108.498125 125.7628125 108.168125 129.3928125 107.828125 133.1328125 C107.168125 133.1328125 106.508125 133.1328125 105.828125 133.1328125 C105.828125 134.4528125 105.828125 135.7728125 105.828125 137.1328125 C105.168125 137.1328125 104.508125 137.1328125 103.828125 137.1328125 C103.73273438 137.98617187 103.63734375 138.83953125 103.5390625 139.71875 C102.74009445 143.55555263 101.35197622 146.33667548 99.453125 149.7578125 C98.84726563 150.86382812 98.24140625 151.96984375 97.6171875 153.109375 C96.13756162 155.60987813 94.58518168 157.83078637 92.828125 160.1328125 C92.41820312 160.89207031 92.00828125 161.65132812 91.5859375 162.43359375 C89.10920872 166.23674838 85.95551165 169.17633874 82.703125 172.3203125 C81.42750321 173.56156125 80.15395964 174.80495046 78.8828125 176.05078125 C78.32062012 176.59500732 77.75842773 177.1392334 77.17919922 177.69995117 C75.71924361 179.11038131 75.71924361 179.11038131 74.828125 181.1328125 C72.265625 181.7578125 72.265625 181.7578125 69.828125 182.1328125 C69.828125 182.7928125 69.828125 183.4528125 69.828125 184.1328125 C67.34375 185.7890625 67.34375 185.7890625 64.078125 187.6328125 C63.01078125 188.24125 61.9434375 188.8496875 60.84375 189.4765625 C59.84859375 190.023125 58.8534375 190.5696875 57.828125 191.1328125 C57.10109375 191.535 56.3740625 191.9371875 55.625 192.3515625 C53.828125 193.1328125 53.828125 193.1328125 50.828125 193.1328125 C50.828125 193.7928125 50.828125 194.4528125 50.828125 195.1328125 C48.188125 195.4628125 45.548125 195.7928125 42.828125 196.1328125 C42.828125 196.7928125 42.828125 197.4528125 42.828125 198.1328125 C40.93427063 198.64025673 39.03793834 199.13845824 37.140625 199.6328125 C35.55701172 200.05046875 35.55701172 200.05046875 33.94140625 200.4765625 C31.11669828 201.071984 28.69975792 201.26067742 25.828125 201.1328125 C25.828125 201.7928125 25.828125 202.4528125 25.828125 203.1328125 C21.88122497 203.18285122 17.93445191 203.21882883 13.98730469 203.24267578 C11.99667863 203.25748841 10.00614063 203.28292242 8.015625 203.30859375 C0.69622859 203.3455604 -6.07460595 202.98927892 -13.171875 201.1328125 C-13.171875 200.4728125 -13.171875 199.8128125 -13.171875 199.1328125 C-16.801875 198.8028125 -20.431875 198.4728125 -24.171875 198.1328125 C-24.171875 197.4728125 -24.171875 196.8128125 -24.171875 196.1328125 C-26.811875 195.8028125 -29.451875 195.4728125 -32.171875 195.1328125 C-32.171875 194.4728125 -32.171875 193.8128125 -32.171875 193.1328125 C-34.151875 192.8028125 -36.131875 192.4728125 -38.171875 192.1328125 C-38.171875 191.4728125 -38.171875 190.8128125 -38.171875 190.1328125 C-39.161875 190.1328125 -40.151875 190.1328125 -41.171875 190.1328125 C-41.171875 189.4728125 -41.171875 188.8128125 -41.171875 188.1328125 C-42.285625 187.978125 -42.285625 187.978125 -43.421875 187.8203125 C-46.3692269 187.08347453 -47.95570574 186.18482108 -50.171875 184.1328125 C-50.171875 183.4728125 -50.171875 182.8128125 -50.171875 182.1328125 C-51.22375 181.7925 -51.22375 181.7925 -52.296875 181.4453125 C-66.47679085 174.97187265 -76.95595031 156.80784681 -83.171875 143.1328125 C-83.171875 142.1428125 -83.171875 141.1528125 -83.171875 140.1328125 C-83.831875 140.1328125 -84.491875 140.1328125 -85.171875 140.1328125 C-85.501875 137.1628125 -85.831875 134.1928125 -86.171875 131.1328125 C-86.831875 131.1328125 -87.491875 131.1328125 -88.171875 131.1328125 C-90.31736761 126.62547509 -90.81582043 122.28640169 -91.296875 117.3828125 C-91.3803418 116.54588867 -91.46380859 115.70896484 -91.54980469 114.84667969 C-93.00709648 99.07818768 -92.7931797 83.39476837 -88.171875 68.1328125 C-87.511875 68.1328125 -86.851875 68.1328125 -86.171875 68.1328125 C-86.171875 66.8128125 -86.171875 65.4928125 -86.171875 64.1328125 C-85.511875 64.1328125 -84.851875 64.1328125 -84.171875 64.1328125 C-83.9553125 62.245625 -83.9553125 62.245625 -83.734375 60.3203125 C-83.43438814 57.70614127 -83.01374203 55.65841358 -82.171875 53.1328125 C-81.511875 53.1328125 -80.851875 53.1328125 -80.171875 53.1328125 C-80.171875 52.1428125 -80.171875 51.1528125 -80.171875 50.1328125 C-79.511875 50.1328125 -78.851875 50.1328125 -78.171875 50.1328125 C-77.841875 48.4828125 -77.511875 46.8328125 -77.171875 45.1328125 C-76.511875 45.1328125 -75.851875 45.1328125 -75.171875 45.1328125 C-74.841875 43.4828125 -74.511875 41.8328125 -74.171875 40.1328125 C-73.511875 40.1328125 -72.851875 40.1328125 -72.171875 40.1328125 C-71.841875 39.1428125 -71.511875 38.1528125 -71.171875 37.1328125 C-70.511875 37.1328125 -69.851875 37.1328125 -69.171875 37.1328125 C-69.171875 36.1428125 -69.171875 35.1528125 -69.171875 34.1328125 C-68.511875 34.1328125 -67.851875 34.1328125 -67.171875 34.1328125 C-66.841875 33.1428125 -66.511875 32.1528125 -66.171875 31.1328125 C-65.511875 31.1328125 -64.851875 31.1328125 -64.171875 31.1328125 C-63.841875 30.1428125 -63.511875 29.1528125 -63.171875 28.1328125 C-62.511875 28.1328125 -61.851875 28.1328125 -61.171875 28.1328125 C-60.841875 27.1428125 -60.511875 26.1528125 -60.171875 25.1328125 C-59.511875 25.1328125 -58.851875 25.1328125 -58.171875 25.1328125 C-58.171875 24.4728125 -58.171875 23.8128125 -58.171875 23.1328125 C-54.71033654 20.1328125 -54.71033654 20.1328125 -52.171875 20.1328125 C-52.171875 19.4728125 -52.171875 18.8128125 -52.171875 18.1328125 C-50.521875 17.8028125 -48.871875 17.4728125 -47.171875 17.1328125 C-47.171875 16.4728125 -47.171875 15.8128125 -47.171875 15.1328125 C-45.521875 14.8028125 -43.871875 14.4728125 -42.171875 14.1328125 C-42.171875 13.4728125 -42.171875 12.8128125 -42.171875 12.1328125 C-36.546875 9.1328125 -36.546875 9.1328125 -33.171875 9.1328125 C-33.171875 8.4728125 -33.171875 7.8128125 -33.171875 7.1328125 C-32.32625 6.95105469 -31.480625 6.76929688 -30.609375 6.58203125 C-24.22083761 5.16638944 -18.25463574 3.5224685 -12.171875 1.1328125 C-8.08298057 0.09256258 -4.21087223 0.00377802 0 0 Z M-25.171875 20.1328125 C-25.171875 20.7928125 -25.171875 21.4528125 -25.171875 22.1328125 C-26.161875 22.1328125 -27.151875 22.1328125 -28.171875 22.1328125 C-28.171875 22.7928125 -28.171875 23.4528125 -28.171875 24.1328125 C-28.76355469 24.24238281 -29.35523438 24.35195313 -29.96484375 24.46484375 C-34.52574382 25.37999988 -38.41118935 26.22131393 -42.171875 29.1328125 C-42.171875 29.7928125 -42.171875 30.4528125 -42.171875 31.1328125 C-42.89375 31.3803125 -43.615625 31.6278125 -44.359375 31.8828125 C-49.70216164 34.25738434 -53.16954807 38.07666522 -56.796875 42.5703125 C-57.55226563 43.49714844 -58.30765625 44.42398438 -59.0859375 45.37890625 C-62.98265198 50.25525323 -62.98265198 50.25525323 -64.171875 56.1328125 C-64.831875 56.1328125 -65.491875 56.1328125 -66.171875 56.1328125 C-74.01081013 70.93968996 -77.52916327 84.36428844 -77.484375 101.0703125 C-77.50048828 102.26849609 -77.51660156 103.46667969 -77.53320312 104.70117188 C-77.53737173 112.35056359 -76.53470651 118.87365643 -74.171875 126.1328125 C-73.171875 129.79947917 -72.171875 133.46614583 -71.171875 137.1328125 C-70.511875 137.1328125 -69.851875 137.1328125 -69.171875 137.1328125 C-69.171875 138.1228125 -69.171875 139.1128125 -69.171875 140.1328125 C-68.511875 140.1328125 -67.851875 140.1328125 -67.171875 140.1328125 C-66.676875 143.1028125 -66.676875 143.1028125 -66.171875 146.1328125 C-65.511875 146.1328125 -64.851875 146.1328125 -64.171875 146.1328125 C-63.924375 146.8340625 -63.676875 147.5353125 -63.421875 148.2578125 C-62.00007262 151.52795798 -60.29941212 154.2739345 -58.171875 157.1328125 C-57.511875 157.1328125 -56.851875 157.1328125 -56.171875 157.1328125 C-55.98625 157.8340625 -55.800625 158.5353125 -55.609375 159.2578125 C-53.87446002 162.72764245 -51.73921111 164.43006741 -48.73046875 166.80078125 C-47.171875 168.1328125 -47.171875 168.1328125 -46.171875 170.1328125 C-43.64454265 170.78836369 -43.64454265 170.78836369 -41.171875 171.1328125 C-41.171875 171.7928125 -41.171875 172.4528125 -41.171875 173.1328125 C-35.51573029 177.5024161 -30.29269853 179.8690783 -23.171875 180.1328125 C-23.171875 180.7928125 -23.171875 181.4528125 -23.171875 182.1328125 C-21.99625 182.5865625 -20.820625 183.0403125 -19.609375 183.5078125 C-18.94808594 183.76304687 -18.28679687 184.01828125 -17.60546875 184.28125 C-3.22523182 189.31317881 13.82029102 189.53406594 28.828125 187.1328125 C28.828125 186.4728125 28.828125 185.8128125 28.828125 185.1328125 C32.128125 184.8028125 35.428125 184.4728125 38.828125 184.1328125 C38.828125 183.4728125 38.828125 182.8128125 38.828125 182.1328125 C40.148125 182.1328125 41.468125 182.1328125 42.828125 182.1328125 C42.828125 181.4728125 42.828125 180.8128125 42.828125 180.1328125 C43.859375 180.0296875 44.890625 179.9265625 45.953125 179.8203125 C49.77896445 179.14153453 52.46182525 178.02122455 55.828125 176.1328125 C55.828125 175.4728125 55.828125 174.8128125 55.828125 174.1328125 C56.611875 173.8234375 57.395625 173.5140625 58.203125 173.1953125 C60.75142628 172.20406212 60.75142628 172.20406212 62.828125 171.1328125 C62.828125 170.4728125 62.828125 169.8128125 62.828125 169.1328125 C63.405625 169.0709375 63.983125 169.0090625 64.578125 168.9453125 C67.72642284 167.80842717 68.80904094 165.76374021 70.828125 163.1328125 C71.653125 162.4934375 72.478125 161.8540625 73.328125 161.1953125 C76.21697737 158.81200929 77.93881341 156.35163965 79.828125 153.1328125 C79.828125 152.4728125 79.828125 151.8128125 79.828125 151.1328125 C80.488125 151.1328125 81.148125 151.1328125 81.828125 151.1328125 C81.828125 150.4728125 81.828125 149.8128125 81.828125 149.1328125 C82.488125 149.1328125 83.148125 149.1328125 83.828125 149.1328125 C84.158125 147.1528125 84.488125 145.1728125 84.828125 143.1328125 C85.488125 143.1328125 86.148125 143.1328125 86.828125 143.1328125 C89.25973105 139.76597335 89.828125 138.39930886 89.828125 134.1328125 C90.488125 134.1328125 91.148125 134.1328125 91.828125 134.1328125 C92.158125 130.8328125 92.488125 127.5328125 92.828125 124.1328125 C93.488125 124.1328125 94.148125 124.1328125 94.828125 124.1328125 C96.56473057 115.46659687 97.13720621 107.14803031 97.078125 98.3203125 C97.08585938 97.14533203 97.09359375 95.97035156 97.1015625 94.75976562 C97.08818949 88.83886627 96.87976138 83.70968123 94.828125 78.1328125 C94.168125 78.1328125 93.508125 78.1328125 92.828125 78.1328125 C92.77205078 77.28009766 92.77205078 77.28009766 92.71484375 76.41015625 C92.25833878 71.04846057 91.19323418 66.9658617 88.828125 62.1328125 C88.168125 62.1328125 87.508125 62.1328125 86.828125 62.1328125 C86.6425 60.988125 86.6425 60.988125 86.453125 59.8203125 C85.94709708 56.93014114 85.94709708 56.93014114 83.828125 54.1328125 C83.168125 54.1328125 82.508125 54.1328125 81.828125 54.1328125 C81.725 53.5759375 81.621875 53.0190625 81.515625 52.4453125 C79.74863006 46.50178405 75.80731995 42.62424799 70.828125 39.1328125 C70.168125 39.1328125 69.508125 39.1328125 68.828125 39.1328125 C68.498125 38.1428125 68.168125 37.1528125 67.828125 36.1328125 C67.168125 36.1328125 66.508125 36.1328125 65.828125 36.1328125 C65.498125 35.1428125 65.168125 34.1528125 64.828125 33.1328125 C60.94997342 29.19033935 60.94997342 29.19033935 55.828125 28.1328125 C55.828125 27.4728125 55.828125 26.8128125 55.828125 26.1328125 C54.178125 25.8028125 52.528125 25.4728125 50.828125 25.1328125 C50.828125 24.4728125 50.828125 23.8128125 50.828125 23.1328125 C49.838125 23.1328125 48.848125 23.1328125 47.828125 23.1328125 C47.828125 22.4728125 47.828125 21.8128125 47.828125 21.1328125 C26.38132536 12.34898812 -3.92611232 8.54421468 -25.171875 20.1328125 Z " fill="#5367CA" transform="translate(121.171875,7.8671875)"/>
<path d="M0 0 C0 0.66 0 1.32 0 2 C0.58910156 2.103125 1.17820312 2.20625 1.78515625 2.3125 C12.64229798 5.68261807 23.18283062 24.59651745 29 34 C29 34.66 29 35.32 29 36 C29.66 36 30.32 36 31 36 C31.81837442 37.41328129 32.62946219 38.83078346 33.4375 40.25 C33.88996094 41.03890625 34.34242188 41.8278125 34.80859375 42.640625 C35.89311602 44.78833468 36.53148716 46.65205061 37 49 C37.66 49 38.32 49 39 49 C39.495 50.98 39.495 50.98 40 53 C40.66 53 41.32 53 42 53 C43.65 55.97 45.3 58.94 47 62 C47.33 41.87 47.66 21.74 48 1 C55.59 1 63.18 1 71 1 C71.0225952 11.7355017 71.04094074 22.47098759 71.05181217 33.20650768 C71.05702999 38.1914731 71.06410769 43.17642139 71.07543945 48.16137695 C71.0863074 52.97242209 71.09228514 57.78345076 71.09487724 62.59450722 C71.09672443 64.42970349 71.10033151 66.26489886 71.10573006 68.10008812 C71.1129923 70.67115601 71.11398875 73.24215592 71.11352539 75.81323242 C71.11712067 76.57136734 71.12071594 77.32950226 71.12442017 78.11061096 C71.11709709 81.86758788 70.90545566 85.34748443 70 89 C69.34 89 68.68 89 68 89 C67.773125 89.5775 67.54625 90.155 67.3125 90.75 C65.24314102 94.29747255 62.60594367 96.47915341 58.6875 97.75 C51.34034122 98.43345663 46.1655783 98.41627469 40 94 C38.3125 91.5625 38.3125 91.5625 37 89 C36.236875 88.2575 35.47375 87.515 34.6875 86.75 C31.75823625 83.75261384 29.65907463 80.61680469 27.4296875 77.0859375 C26.08879061 74.97177266 26.08879061 74.97177266 24.3203125 73.4140625 C23 72 23 72 23 69 C22.34 69 21.68 69 21 69 C19.52734375 66.91796875 19.52734375 66.91796875 17.9375 64.1875 C17.14666016 62.84751953 17.14666016 62.84751953 16.33984375 61.48046875 C15 59 15 59 14 56 C13.34 56 12.68 56 12 56 C9 50.25 9 50.25 9 48 C8.34 48 7.68 48 7 48 C6.5875 47.154375 6.175 46.30875 5.75 45.4375 C4.49730894 42.97685684 3.21062139 40.62332349 1.8125 38.25 C0 35 0 35 0 33 C-0.66 33 -1.32 33 -2 33 C-2 53.46 -2 73.92 -2 95 C-9.59 95 -17.18 95 -25 95 C-25.09041621 83.89063006 -25.16378249 72.78150502 -25.20724869 61.6718502 C-25.22811166 56.51302786 -25.25640597 51.35447058 -25.30175781 46.19580078 C-25.34526124 41.21614608 -25.36914681 36.23674614 -25.37950897 31.25691605 C-25.38689224 29.35831314 -25.40131014 27.45972398 -25.42292023 25.56122971 C-25.45201408 22.89907597 -25.45595352 20.23797107 -25.45410156 17.57568359 C-25.46848267 16.79309174 -25.48286377 16.01049988 -25.49768066 15.20419312 C-25.4588991 10.04240912 -24.42731553 7.08684128 -21 3 C-18.75 2.125 -18.75 2.125 -17 2 C-17 1.34 -17 0.68 -17 0 C-11.49017726 -1.37745568 -5.45954909 -1.8198497 0 0 Z " fill="#5368CC" transform="translate(107,59)"/>
<path d="M0 0 C6.93 0 13.86 0 21 0 C21 28.71 21 57.42 21 87 C20.34 87 19.68 87 19 87 C18.773125 87.5775 18.54625 88.155 18.3125 88.75 C16.50841532 91.8427166 15.11733939 93.15504404 12 95 C8.33981151 95.6237786 4.7080343 95.87012139 1 96 C1 95.01 1 94.02 1 93 C1.66386719 92.95101562 2.32773438 92.90203125 3.01171875 92.8515625 C9.80040647 92.4572284 9.80040647 92.4572284 16 90 C18.30267243 85.70602559 18.30545732 81.47884444 18.31884766 76.72143555 C18.32889328 75.90140549 18.3389389 75.08137543 18.34928894 74.23649597 C18.38008319 71.5365771 18.39714559 68.83675723 18.4140625 66.13671875 C18.43277717 64.26055553 18.45235081 62.38440069 18.4727478 60.508255 C18.52404336 55.5780431 18.56368291 50.64780392 18.60089111 45.71746826 C18.64094687 40.68332179 18.69203206 35.64928856 18.7421875 30.61523438 C18.83891639 20.74356127 18.92231124 10.87184133 19 1 C13.06 1 7.12 1 1 1 C1 20.47 1 39.94 1 60 C0.67 60 0.34 60 0 60 C0 40.2 0 20.4 0 0 Z " fill="#5D74DB" transform="translate(156,61)"/>
<path d="M0 0 C7.59 0 15.18 0 23 0 C23 27.39 23 54.78 23 83 C22.67 83 22.34 83 22 83 C22 55.94 22 28.88 22 1 C15.07 1 8.14 1 1 1 C1 21.79 1 42.58 1 64 C-0.65 63.67 -2.3 63.34 -4 63 C-5.125 58.25 -5.125 58.25 -4 56 C-3.01 57.65 -2.02 59.3 -1 61 C-0.67 40.87 -0.34 20.74 0 0 Z " fill="#4556A8" transform="translate(155,60)"/>
<path d="M0 0 C0.33 0 0.66 0 1 0 C0.67 13.53 0.34 27.06 0 41 C-0.33 41 -0.66 41 -1 41 C-3.53969805 29.02713776 -6.07799868 11.16770489 0 0 Z " fill="#5A71D7" transform="translate(44,86)"/>
<path d="M0 0 C0 0.33 0 0.66 0 1 C-0.56807373 1.02505615 -1.13614746 1.0501123 -1.72143555 1.07592773 C-12.49634996 1.55624081 -23.25343757 2.06291571 -34 3 C-30.57014218 -0.15885671 -27.90117651 -0.4603378 -23.3125 -0.6875 C-22.06984375 -0.75066406 -20.8271875 -0.81382813 -19.546875 -0.87890625 C-12.864189 -1.10705963 -6.60321324 -1.12395119 0 0 Z " fill="#6076DE" transform="translate(143,20)"/>
<path d="M0 0 C8.30015524 -0.15245183 16.77731066 -0.22761278 25 1 C25.33 1.66 25.66 2.32 26 3 C18.74 3 11.48 3 4 3 C4 2.34 4 1.68 4 1 C2.68 0.67 1.36 0.34 0 0 Z " fill="#5F76DB" transform="translate(112,207)"/>
<path d="M0 0 C1 2 1 2 0.4375 4.5625 C-1.45059128 9.07750089 -3.89579683 13.20409939 -7 17 C-7.66 17 -8.32 17 -9 17 C-9.33 17.99 -9.66 18.98 -10 20 C-10.33 19.34 -10.66 18.68 -11 18 C-10.06421005 15.64018187 -9.06652192 13.30368736 -8 11 C-7.34 11 -6.68 11 -6 11 C-6 10.34 -6 9.68 -6 9 C-5.34 9 -4.68 9 -4 9 C-3.67 7.02 -3.34 5.04 -3 3 C-2.34 3 -1.68 3 -1 3 C-0.67 2.01 -0.34 1.02 0 0 Z " fill="#5368C2" transform="translate(209,148)"/>
<path d="M0 0 C0 0.33 0 0.66 0 1 C-8.56026929 4.21010098 -16.9815431 4.13586667 -26 4.0625 C-27.06089844 4.05798828 -28.12179688 4.05347656 -29.21484375 4.04882812 C-31.80995598 4.03713843 -34.40494709 4.02075276 -37 4 C-37 3.67 -37 3.34 -37 3 C-35.83984375 2.95101562 -34.6796875 2.90203125 -33.484375 2.8515625 C-25.37090212 2.47473811 -17.50209795 1.91190295 -9.50390625 0.41015625 C-6.27334467 -0.1190309 -3.26387353 -0.14835789 0 0 Z " fill="#607AE0" transform="translate(157,194)"/>
<path d="M0 0 C-13.71033448 9.60656089 -13.71033448 9.60656089 -22 9 C-21.24396484 8.63455078 -21.24396484 8.63455078 -20.47265625 8.26171875 C-18.43139262 7.22012609 -16.4335987 6.13676822 -14.43359375 5.01953125 C-13.78326172 4.66052734 -13.13292969 4.30152344 -12.46289062 3.93164062 C-11.10465722 3.18114135 -9.75049944 2.42322164 -8.40039062 1.65820312 C-3.33699777 -1.11233259 -3.33699777 -1.11233259 0 0 Z " fill="#5B72D5" transform="translate(188,193)"/>
<path d="M0 0 C0.66 0 1.32 0 2 0 C2.35215445 3.87369897 1.49218025 6.39685337 -0.1328125 9.88671875 C-1.86573881 14.10975089 -2.87397828 18.5837588 -4 23 C-4.33 23 -4.66 23 -5 23 C-5.04241723 20.66705225 -5.04092937 18.33297433 -5 16 C-4.67 15.67 -4.34 15.34 -4 15 C-3.60430892 12.98688551 -3.25747809 10.96402792 -2.9375 8.9375 C-2.67259766 7.28041016 -2.67259766 7.28041016 -2.40234375 5.58984375 C-2.26957031 4.73519531 -2.13679688 3.88054687 -2 3 C-1.34 3 -0.68 3 0 3 C0 2.01 0 1.02 0 0 Z " fill="#5C73D8" transform="translate(37,69)"/>
<path d="M0 0 C0.33 0.66 0.66 1.32 1 2 C1.66 2 2.32 2 3 2 C4.01501998 3.86691174 5.01142079 5.74395344 6 7.625 C6.556875 8.66914062 7.11375 9.71328125 7.6875 10.7890625 C9.0578255 14.14146595 9.2580505 16.41954936 9 20 C8.34 20 7.68 20 7 20 C6.32968281 18.0429132 5.66385317 16.08428887 5 14.125 C4.62875 13.03445312 4.2575 11.94390625 3.875 10.8203125 C3 8 3 8 3 6 C2.34 6 1.68 6 1 6 C0.67 4.02 0.34 2.04 0 0 Z " fill="#5A71D3" transform="translate(216,56)"/>
<path d="M0 0 C0.33 0 0.66 0 1 0 C1.02505615 0.77601562 1.0501123 1.55203125 1.07592773 2.3515625 C1.19267745 5.90117731 1.3150431 9.45057768 1.4375 13 C1.49647461 14.83111328 1.49647461 14.83111328 1.55664062 16.69921875 C1.77308103 22.85944564 2.09281831 28.90129953 3 35 C2.01 35.495 2.01 35.495 1 36 C-0.2187375 32.20462369 -0.11338128 28.57208379 -0.09765625 24.609375 C-0.0962413 23.90476135 -0.09482635 23.20014771 -0.09336853 22.47418213 C-0.08778933 20.23274416 -0.07524073 17.99140757 -0.0625 15.75 C-0.05748231 14.22656395 -0.05291987 12.70312632 -0.04882812 11.1796875 C-0.03782674 7.45309228 -0.02057646 3.72655604 0 0 Z " fill="#647FEB" transform="translate(31,94)"/>
<path d="M0 0 C0.33 0 0.66 0 1 0 C1.84327749 8.35748222 2.12190678 16.60197746 2 25 C1.67 25 1.34 25 1 25 C-0.58968904 16.99478018 -1.59685798 9.17556629 -1 1 C-0.67 0.67 -0.34 0.34 0 0 Z " fill="#5E76E2" transform="translate(42,102)"/>
<path d="M0 0 C7.16569833 0.89571229 13.71570086 3.47466146 20 7 C20.33 7.66 20.66 8.32 21 9 C18.03 8.505 18.03 8.505 15 8 C15 7.34 15 6.68 15 6 C14.01 5.9175 13.02 5.835 12 5.75 C7.52543052 5.13691993 3.90429315 3.18031955 0 1 C0 0.67 0 0.34 0 0 Z " fill="#5D74DA" transform="translate(154,23)"/>
<path d="M0 0 C2.97 0.495 2.97 0.495 6 1 C6 1.66 6 2.32 6 3 C6.639375 3.268125 7.27875 3.53625 7.9375 3.8125 C10 5 10 5 11 8 C11.99 8.33 12.98 8.66 14 9 C13.01 10.485 13.01 10.485 12 12 C11.67 11.01 11.34 10.02 11 9 C10.401875 8.87625 9.80375 8.7525 9.1875 8.625 C5.98528306 7.71008087 4.939488 5.62769342 3 3 C2.01769502 1.9826127 1.02530403 0.97403883 0 0 Z " fill="#5266C0" transform="translate(183,39)"/>
<path d="M0 0 C5.44693314 -0.09688221 10.63904667 -0.12862175 16 1 C16 1.66 16 2.32 16 3 C17.32 3 18.64 3 20 3 C19.67 3.99 19.34 4.98 19 6 C18.13117188 5.72285156 17.26234375 5.44570312 16.3671875 5.16015625 C15.21476563 4.79792969 14.06234375 4.43570312 12.875 4.0625 C11.73804688 3.70285156 10.60109375 3.34320313 9.4296875 2.97265625 C6.28567301 2.08101661 3.23105607 1.46648986 0 1 C0 0.67 0 0.34 0 0 Z " fill="#5E75DA" transform="translate(145,10)"/>
<path d="M0 0 C0.66 0.33 1.32 0.66 2 1 C0.39676273 2.77168246 -1.20755139 4.54236892 -2.8125 6.3125 C-3.26431641 6.81201172 -3.71613281 7.31152344 -4.18164062 7.82617188 C-6.40219821 10.27364776 -8.63155925 12.69450785 -11 15 C-11.66 14.67 -12.32 14.34 -13 14 C-9.82767331 8.58060857 -5.80502622 4.99136045 -1 1 C-0.67 0.67 -0.34 0.34 0 0 Z " fill="#161C3A" transform="translate(75,40)"/>
<path d="M0 0 C0.33 0.99 0.66 1.98 1 3 C-2.3 6.3 -5.6 9.6 -9 13 C-9.99 12.67 -10.98 12.34 -12 12 C-10.37660195 10.29115995 -8.70680947 8.62553283 -7 7 C-6.34 7 -5.68 7 -5 7 C-4.731875 6.401875 -4.46375 5.80375 -4.1875 5.1875 C-3.01506533 3.02775192 -1.80630718 1.64209744 0 0 Z " fill="#5C73D5" transform="translate(208,172)"/>
<path d="M0 0 C3.99900242 3.66575222 6.63557638 7.08927402 9 12 C8.67 12.99 8.34 13.98 8 15 C0 5.91891892 0 5.91891892 0 0 Z " fill="#5C72D4" transform="translate(107,91)"/>
<path d="M0 0 C4.3177458 0.50797009 8.03302114 1.19682779 12 3 C12 3.66 12 4.32 12 5 C13.65 5 15.3 5 17 5 C17 5.33 17 5.66 17 6 C10.69732561 5.63223832 5.66748157 4.83374078 0 2 C0 1.34 0 0.68 0 0 Z " fill="#5E75DB" transform="translate(93,189)"/>
<path d="M0 0 C-0.99 0.33 -1.98 0.66 -3 1 C-3 1.66 -3 2.32 -3 3 C-7.0527516 3.98248524 -10.83861737 4.08159574 -15 4 C-15.33 3.34 -15.66 2.68 -16 2 C-14.27192682 1.66104344 -12.54248026 1.32908475 -10.8125 1 C-9.84957031 0.814375 -8.88664063 0.62875 -7.89453125 0.4375 C-5.2065794 0.03122388 -2.71228981 -0.07933572 0 0 Z " fill="#5B72D8" transform="translate(167,203)"/>
<path d="M0 0 C1.74216797 0.15275391 1.74216797 0.15275391 3.51953125 0.30859375 C4.39996094 0.39238281 5.28039062 0.47617188 6.1875 0.5625 C6.1875 0.8925 6.1875 1.2225 6.1875 1.5625 C0.12053301 2.33290851 -5.69764973 2.65956112 -11.8125 2.5625 C-11.8125 1.9025 -11.8125 1.2425 -11.8125 0.5625 C-7.71524731 -0.47917441 -4.19754776 -0.38159525 0 0 Z " fill="#596FD1" transform="translate(120.8125,8.4375)"/>
<path d="M0 0 C3.68377179 1.22792393 4.29785789 2.82911332 6.08203125 6.14453125 C7.18998593 8.38401412 8.14622424 10.65211667 9 13 C5.39584951 11.7986165 4.85293989 10.73856012 2.8125 7.625 C2.28269531 6.83351563 1.75289063 6.04203125 1.20703125 5.2265625 C0 3 0 3 0 0 Z " fill="#5970D0" transform="translate(121,114)"/>
<path d="M0 0 C3.41742782 1.13914261 4.12880598 2.06390308 6.25 4.875 C6.79140625 5.57367188 7.3328125 6.27234375 7.890625 6.9921875 C8.25671875 7.65476562 8.6228125 8.31734375 9 9 C8.67 9.99 8.34 10.98 8 12 C7.34 10.68 6.68 9.36 6 8 C5.34 8 4.68 8 4 8 C0 3.64705882 0 3.64705882 0 0 Z " fill="#5B72D1" transform="translate(116,69)"/>
<path d="M0 0 C0 0.66 0 1.32 0 2 C-1.55966218 2.508783 -3.12289241 3.00663469 -4.6875 3.5 C-5.99267578 3.91765625 -5.99267578 3.91765625 -7.32421875 4.34375 C-9.99391677 4.99850805 -12.26396684 5.11831495 -15 5 C-15 4.34 -15 3.68 -15 3 C-9.89665983 1.094753 -5.53657294 -0.42589023 0 0 Z " fill="#5F76DB" transform="translate(108,11)"/>
<path d="M0 0 C3.29680965 0.65784963 5.84117922 1.89420573 8.75 3.5625 C9.94882813 4.24505859 9.94882813 4.24505859 11.171875 4.94140625 C11.77515625 5.29074219 12.3784375 5.64007813 13 6 C13 6.66 13 7.32 13 8 C9.85262818 7.30058404 6.97411124 6.23921302 4 5 C4 4.34 4 3.68 4 3 C2.68 2.67 1.36 2.34 0 2 C0 1.34 0 0.68 0 0 Z " fill="#5C73D6" transform="translate(79,181)"/>
<path d="M0 0 C0.66 0 1.32 0 2 0 C3.7265625 2.1875 3.7265625 2.1875 5.625 5 C6.25664062 5.928125 6.88828125 6.85625 7.5390625 7.8125 C8.26222656 8.8953125 8.26222656 8.8953125 9 10 C8.67 10.66 8.34 11.32 8 12 C4.38430095 9.36151691 1.97164786 7.04706667 0 3 C0 2.01 0 1.02 0 0 Z " fill="#5A70D0" transform="translate(135,134)"/>
<path d="M0 0 C4.65870821 5.46891833 4.13414356 11.15867854 4 18 C3.67 18 3.34 18 3 18 C2.49309416 15.93918639 1.99475381 13.87626474 1.5 11.8125 C1.2215625 10.66394531 0.943125 9.51539062 0.65625 8.33203125 C0.08504615 5.43181171 -0.13283779 2.93903615 0 0 Z " fill="#6078DF" transform="translate(215,81)"/>
<path d="M0 0 C0 0.99 0 1.98 0 3 C-0.66 3 -1.32 3 -2 3 C-2 3.66 -2 4.32 -2 5 C-4.90548882 7.04169485 -6.40142046 8 -10 8 C-10 7.34 -10 6.68 -10 6 C-6.53846154 3 -6.53846154 3 -4 3 C-4 2.34 -4 1.68 -4 1 C-2 0 -2 0 0 0 Z " fill="#4C5FB2" transform="translate(73,25)"/>
<path d="M0 0 C1.32 0 2.64 0 4 0 C4 0.66 4 1.32 4 2 C6.31 2.33 8.62 2.66 11 3 C11.66 4.65 12.32 6.3 13 8 C12.01 8.495 12.01 8.495 11 9 C11 8.34 11 7.68 11 7 C9.35 6.67 7.7 6.34 6 6 C6.33 5.34 6.66 4.68 7 4 C5.68 3.67 4.36 3.34 3 3 C3 2.34 3 1.68 3 1 C2.01 0.67 1.02 0.34 0 0 Z " fill="#43549F" transform="translate(169,15)"/>
<path d="M0 0 C0.33 0.66 0.66 1.32 1 2 C0.38511719 2.19335938 -0.22976562 2.38671875 -0.86328125 2.5859375 C-2.07564453 2.97652344 -2.07564453 2.97652344 -3.3125 3.375 C-4.51326172 3.75785156 -4.51326172 3.75785156 -5.73828125 4.1484375 C-8.22724528 4.98831811 -8.22724528 4.98831811 -11 7 C-11.99 6.67 -12.98 6.34 -14 6 C-12.68 5.34 -11.36 4.68 -10 4 C-10 3.34 -10 2.68 -10 2 C-6.7 1.34 -3.4 0.68 0 0 Z " fill="#5064BD" transform="translate(92,30)"/>
<path d="M0 0 C3 1 3 1 4.203125 2.7421875 C4.54859375 3.44601563 4.8940625 4.14984375 5.25 4.875 C5.60578125 5.57367188 5.9615625 6.27234375 6.328125 6.9921875 C7 9 7 9 6 12 C6 11.34 6 10.68 6 10 C5.34 10 4.68 10 4 10 C0 3.375 0 3.375 0 0 Z " fill="#5970D2" transform="translate(138,99)"/>
<path d="M0 0 C2.65298379 1.39630726 4.62365425 2.46969463 6.375 4.9375 C7.11467689 7.37843373 6.69339458 8.59321738 6 11 C4.9944239 9.54550599 3.99569565 8.08627557 3 6.625 C2.443125 5.81289062 1.88625 5.00078125 1.3125 4.1640625 C0 2 0 2 0 0 Z " fill="#5970D0" transform="translate(130,88)"/>
<path d="M0 0 C2.64752004 2.57784846 4.94432065 4.91648098 7 8 C6.67 8.99 6.34 9.98 6 11 C5.34 9.68 4.68 8.36 4 7 C3.34 7 2.68 7 2 7 C0.5393715 4.35261084 0 3.10551666 0 0 Z " fill="#586ED1" transform="translate(201,55)"/>
<path d="M0 0 C0.66 0.33 1.32 0.66 2 1 C0.37660195 2.70884005 -1.29319053 4.37446717 -3 6 C-3.66 6 -4.32 6 -5 6 C-5.33 6.99 -5.66 7.98 -6 9 C-6.99 9.33 -7.98 9.66 -9 10 C-8.61402985 7.20171644 -8.19863427 6.1794116 -6.0625 4.25 C-4 3 -4 3 -2 3 C-2 2.34 -2 1.68 -2 1 C-1.34 0.67 -0.68 0.34 0 0 Z " fill="#5B73D7" transform="translate(74,39)"/>
<path d="M0 0 C1.53445094 3.06890187 0.54984289 5.70094266 0 9 C-0.66 9 -1.32 9 -2 9 C-2.33 10.32 -2.66 11.64 -3 13 C-3.33 10.36 -3.66 7.72 -4 5 C-3.34 4.67 -2.68 4.34 -2 4 C-0.86649466 1.98330173 -0.86649466 1.98330173 0 0 Z " fill="#41509B" transform="translate(229,132)"/>
<path d="M0 0 C2.50853762 2.18133706 3.61952612 3.67085353 4 7 C3.72949547 9.00946222 3.40632091 11.01354224 3 13 C-0.22430866 8.16353702 -0.09242903 5.73060016 0 0 Z " fill="#3D4D93" transform="translate(31,126)"/>
<path d="M0 0 C0.66 0 1.32 0 2 0 C1.55530671 5.03985731 -0.71343362 7.37634988 -4 11 C-4.33 10.34 -4.66 9.68 -5 9 C-3.71817658 6.60726294 -2.40719057 4.31259225 -1 2 C-0.67 1.34 -0.34 0.68 0 0 Z " fill="#5F76DA" transform="translate(215,160)"/>
<path d="M0 0 C1.98 0 3.96 0 6 0 C3.14978125 2.32240046 0.53644909 3.93906527 -3 5 C-5.3125 4.625 -5.3125 4.625 -7 4 C-4 2 -4 2 0 2 C0 1.34 0 0.68 0 0 Z " fill="#6077DD" transform="translate(102,23)"/>
<path d="M0 0 C2.40034102 3.60051153 4.32187705 6.96144535 3.625 11.375 C3.41875 11.91125 3.2125 12.4475 3 13 C0.78145293 8.37802694 -0.38281159 5.23175837 0 0 Z " fill="#5E76DF" transform="translate(34,133)"/>
<path d="M0 0 C0.66 0.33 1.32 0.66 2 1 C1.67 1.66 1.34 2.32 1 3 C0.34 3 -0.32 3 -1 3 C-1.268125 3.639375 -1.53625 4.27875 -1.8125 4.9375 C-3 7 -3 7 -6 8 C-6.33 7.01 -6.66 6.02 -7 5 C-2.25 2 -2.25 2 0 2 C0 1.34 0 0.68 0 0 Z " fill="#4D61B5" transform="translate(184,177)"/>
<path d="M0 0 C-6.435 1.98 -6.435 1.98 -13 4 C-13.33 3.34 -13.66 2.68 -14 2 C-12.68 2 -11.36 2 -10 2 C-10 1.34 -10 0.68 -10 0 C-6.05523353 -0.80688405 -4.00001715 -1.00000429 0 0 Z " fill="#273163" transform="translate(109,10)"/>
<path d="M0 0 C2.51083114 1.25541557 2.87125446 2.50063488 4 5 C4.66 4.67 5.32 4.34 6 4 C6 5.32 6 6.64 6 8 C4.35 7.67 2.7 7.34 1 7 C0 2.25 0 2.25 0 0 Z " fill="#4A5CB2" transform="translate(150,116)"/>
<path d="M0 0 C0.33 0.66 0.66 1.32 1 2 C-0.98 4.64 -2.96 7.28 -5 10 C-5.33 9.01 -5.66 8.02 -6 7 C-5.67 6.34 -5.34 5.68 -5 5 C-4.34 5 -3.68 5 -3 5 C-2.5359375 4.0409375 -2.5359375 4.0409375 -2.0625 3.0625 C-1 1 -1 1 0 0 Z " fill="#5D74D8" transform="translate(63,50)"/>
<path d="M0 0 C4.29 0.33 8.58 0.66 13 1 C13 1.33 13 1.66 13 2 C8.05 2.33 3.1 2.66 -2 3 C-1.34 2.01 -0.68 1.02 0 0 Z " fill="#4D61B7" transform="translate(142,8)"/>
<path d="M0 0 C0.66 0.33 1.32 0.66 2 1 C0.125 6.75 0.125 6.75 -1 9 C-1.99 8.67 -2.98 8.34 -4 8 C-3.67 7.01 -3.34 6.02 -3 5 C-2.34 5 -1.68 5 -1 5 C-0.67 3.35 -0.34 1.7 0 0 Z " fill="#4D60B2" transform="translate(47,48)"/>
<path d="M0 0 C2.97 0.495 2.97 0.495 6 1 C6 1.66 6 2.32 6 3 C6.99 3.33 7.98 3.66 9 4 C8.01 4.66 7.02 5.32 6 6 C3.97945196 4.35830472 1.97956942 2.69088222 0 1 C0 0.67 0 0.34 0 0 Z " fill="#4E61B6" transform="translate(183,39)"/>
<path d="M0 0 C-3.83325617 2.70582788 -6.32538149 3.32613618 -11 3 C-9.66666667 2.33333333 -8.33333333 1.66666667 -7 1 C-6.319375 0.608125 -5.63875 0.21625 -4.9375 -0.1875 C-3 -1 -3 -1 0 0 Z " fill="#5F77DE" transform="translate(177,199)"/>
<path d="M0 0 C0.66 0 1.32 0 2 0 C2.33 0.99 2.66 1.98 3 3 C1 5 1 5 -1.625 5.125 C-2.40875 5.08375 -3.1925 5.0425 -4 5 C-3.67 4.34 -3.34 3.68 -3 3 C-2.34 3 -1.68 3 -1 3 C-0.67 2.01 -0.34 1.02 0 0 Z " fill="#4D62B6" transform="translate(192,170)"/>
<path d="M0 0 C1.48828125 1.26953125 1.48828125 1.26953125 3 3 C3.1875 6.6875 3.1875 6.6875 3 10 C2.34 9.67 1.68 9.34 1 9 C0.5859375 6.93359375 0.5859375 6.93359375 0.375 4.4375 C0.30023438 3.61121094 0.22546875 2.78492187 0.1484375 1.93359375 C0.09945312 1.29550781 0.05046875 0.65742187 0 0 Z " fill="#5F77DF" transform="translate(225,77)"/>
<path d="M0 0 C2.31 1.98 4.62 3.96 7 6 C6.67 6.66 6.34 7.32 6 8 C1.125 4.5 1.125 4.5 0 0 Z " fill="#5F78DF" transform="translate(56,175)"/>
<path d="M0 0 C0.33 0 0.66 0 1 0 C1.16682272 4.92127034 1.24828052 8.50343896 -1 13 C-1.33 13 -1.66 13 -2 13 C-2.23509196 8.18061476 -1.45184478 4.53701494 0 0 Z " fill="#33407B" transform="translate(33,76)"/>
<path d="M0 0 C1.9375 0.6875 1.9375 0.6875 4 2 C4.75 4.625 4.75 4.625 5 7 C2.5 5.75 2.5 5.75 0 4 C0 2.68 0 1.36 0 0 Z " fill="#5C72D6" transform="translate(56,157)"/>
<path d="M0 0 C1.33332095 2.6666419 0.67102033 4.16680303 0 7 C-1.32 6.67 -2.64 6.34 -4 6 C-3.67 5.01 -3.34 4.02 -3 3 C-2.34 3 -1.68 3 -1 3 C-0.67 2.01 -0.34 1.02 0 0 Z " fill="#495BA8" transform="translate(209,148)"/>
<path d="M0 0 C1.65 0.99 3.3 1.98 5 3 C4.67 4.65 4.34 6.3 4 8 C3.67 7.01 3.34 6.02 3 5 C2.34 5 1.68 5 1 5 C0.67 3.35 0.34 1.7 0 0 Z " fill="#495BAE" transform="translate(35,143)"/>
<path d="M0 0 C0.33 0 0.66 0 1 0 C1.28571429 7.42857143 1.28571429 7.42857143 -1 11 C-2.26264601 6.70700357 -1.62950412 4.12168689 0 0 Z " fill="#617AE3" transform="translate(228,126)"/>
<path d="M0 0 C2.1519437 3.22791555 2.20086443 4.28400809 2 8 C1.01 8.495 1.01 8.495 0 9 C-1.125 2.25 -1.125 2.25 0 0 Z " fill="#5F76DB" transform="translate(32,121)"/>
</svg>
